<svg xmlns="http://www.w3.org/2000/svg" width="20" height="16"><path d="M19.37 1.75a7.714 7.714 0 0 1-2.218.608A3.879 3.879 0 0 0 18.849.222a7.787 7.787 0 0 1-2.454.938 3.863 3.863 0 0 0-6.582 3.522A10.966 10.966 0 0 1 1.852.646a3.833 3.833 0 0 0-.523 1.941 3.86 3.86 0 0 0 1.718 3.215 3.863 3.863 0 0 1-1.75-.485v.048a3.867 3.867 0 0 0 3.099 3.788 3.913 3.913 0 0 1-1.018.135c-.25 0-.49-.024-.727-.072A3.865 3.865 0 0 0 6.258 11.9a7.75 7.75 0 0 1-4.797 1.651 8.21 8.21 0 0 1-.921-.053 10.918 10.918 0 0 0 5.92 1.738c7.106 0 10.99-5.886 10.99-10.99l-.013-.5A7.713 7.713 0 0 0 19.37 1.75z"/></svg>