<svg xmlns="http://www.w3.org/2000/svg" width="24" height="14"><path d="M23.505 12.832a1.604 1.604 0 0 0-.08-.152c-.406-.732-1.183-1.63-2.33-2.696l-.023-.025-.013-.012-.012-.012h-.012c-.52-.496-.85-.83-.988-1-.253-.326-.31-.655-.171-.989.097-.252.464-.784 1.098-1.597.333-.432.597-.777.793-1.037 1.407-1.87 2.017-3.066 1.83-3.587l-.073-.121c-.05-.074-.175-.14-.378-.202-.204-.06-.464-.07-.781-.03l-3.513.024a.456.456 0 0 0-.244.006l-.159.037-.061.03-.049.037a.542.542 0 0 0-.134.128.837.837 0 0 0-.122.214 19.918 19.918 0 0 1-1.305 2.744c-.3.505-.577.942-.83 1.312a6.31 6.31 0 0 1-.634.817c-.17.175-.325.315-.463.42-.139.107-.244.151-.317.135a8.958 8.958 0 0 1-.208-.049.811.811 0 0 1-.274-.299 1.338 1.338 0 0 1-.14-.476 5.247 5.247 0 0 1-.043-.494 9.44 9.44 0 0 1 .006-.585c.008-.252.012-.423.012-.512 0-.31.006-.645.018-1.007l.03-.86c.009-.211.013-.435.013-.67 0-.237-.015-.422-.043-.556a1.899 1.899 0 0 0-.128-.39.657.657 0 0 0-.25-.293A1.41 1.41 0 0 0 13.12.92c-.431-.097-.98-.15-1.647-.158-1.513-.016-2.485.081-2.916.293-.17.089-.325.211-.463.365-.147.18-.167.277-.061.293.488.073.833.248 1.036.525l.074.146c.057.106.114.293.17.561.057.269.094.565.11.89.04.594.04 1.103 0 1.525-.04.423-.079.753-.116.989a1.978 1.978 0 0 1-.164.573 2.419 2.419 0 0 1-.147.268.21.21 0 0 1-.06.061.914.914 0 0 1-.33.061c-.114 0-.252-.057-.415-.17a2.926 2.926 0 0 1-.506-.47 6.279 6.279 0 0 1-.592-.836c-.22-.358-.447-.78-.683-1.268l-.195-.354c-.122-.228-.289-.56-.5-.994a19.167 19.167 0 0 1-.561-1.263.804.804 0 0 0-.293-.39L4.8 1.53a.835.835 0 0 0-.195-.104 1.295 1.295 0 0 0-.28-.079L.98 1.371c-.342 0-.573.078-.695.232l-.05.073a.395.395 0 0 0-.036.196c0 .089.024.199.073.329a40.261 40.261 0 0 0 1.592 3.318 37.789 37.789 0 0 0 1.494 2.574 31 31 0 0 0 1.293 1.842c.44.577.73.947.873 1.11.142.163.254.284.335.366l.305.292c.195.196.482.43.86.702.378.272.797.54 1.257.805.46.264.994.48 1.604.646.61.167 1.203.234 1.78.202h1.404c.284-.025.5-.114.646-.269l.049-.06a.809.809 0 0 0 .091-.226 1.24 1.24 0 0 0 .043-.336 4.02 4.02 0 0 1 .079-.945c.06-.28.13-.492.208-.634a1.56 1.56 0 0 1 .47-.537.797.797 0 0 1 .097-.042c.195-.066.425-.003.69.189a4 4 0 0 1 .743.707c.232.281.51.596.836.946.325.35.61.61.854.78l.244.147c.163.097.374.187.634.268.26.081.488.102.683.061l3.123-.049c.309 0 .55-.05.72-.152.17-.102.272-.214.305-.336a.945.945 0 0 0 .006-.415 1.531 1.531 0 0 0-.086-.323z"/></svg>