<svg xmlns="http://www.w3.org/2000/svg" width="20" height="19"><path d="M13.774 9.675c0 2.017-1.688 3.653-3.77 3.653s-3.77-1.636-3.77-3.653c0-2.018 1.688-3.653 3.77-3.653s3.77 1.635 3.77 3.653zm3.475 6.522a.746.746 0 0 1-.745.745H3.432a.747.747 0 0 1-.745-.745v-7.93H4.41a5.513 5.513 0 0 0-.242 1.612c0 3.121 2.614 5.653 5.835 5.653 3.223 0 5.836-2.532 5.836-5.653 0-.56-.085-1.1-.241-1.611h1.651zm-.853-13.782a.85.85 0 0 1 .845.848v2.028c0 .466-.38.847-.845.847h-2.121a.848.848 0 0 1-.845-.847V3.263a.85.85 0 0 1 .845-.848zM.6 2.739v13.953A2.416 2.416 0 0 0 3.01 19.1h13.952a2.415 2.415 0 0 0 2.41-2.409V2.74A2.416 2.416 0 0 0 16.961.33H3.01A2.417 2.417 0 0 0 .6 2.74z"/></svg>